<svg width="70" height="58" viewBox="0 0 70 58" fill="none" xmlns="http://www.w3.org/2000/svg">
<g clip-path="url(#clip0_6_114)" filter="url(#filter0_d_6_114)">
<path d="M34.897 50.036C26.766 50.036 18.635 50.036 10.505 50.036C10.478 50.036 10.447 50.037 10.415 50.037C6.872 50.037 4 47.165 4 43.622C4 43.59 4 43.559 4.001 43.527V43.532C4.07233 34.0967 4.07233 24.6554 4.001 15.208C4.001 15.197 4.001 15.185 4.001 15.172C4.001 11.619 6.881 8.73903 10.434 8.73903C26.767 8.73903 43.082 8.73903 59.415 8.73903C59.497 8.73503 59.593 8.73303 59.69 8.73303C63.085 8.73303 65.837 11.485 65.837 14.88C65.837 14.983 65.834 15.085 65.829 15.186L65.83 15.172V43.532C65.837 43.641 65.841 43.768 65.841 43.897C65.841 47.292 63.089 50.044 59.694 50.044C59.59 50.044 59.486 50.041 59.383 50.036L59.398 50.037L34.897 50.036ZM34.897 43.871C34.939 43.871 34.99 43.872 35.04 43.872C43.014 43.872 49.479 37.407 49.479 29.433C49.479 21.459 43.014 14.994 35.04 14.994C27.078 14.994 20.622 21.438 20.601 29.394V29.396C20.65 37.281 26.988 43.669 34.849 43.799H34.861L34.897 43.871ZM16.384 19.049C16.345 17.928 15.436 17.031 14.313 17.012H14.311C13.176 17.012 12.256 17.932 12.256 19.067C12.256 20.202 13.176 21.122 14.311 21.122C15.448 21.102 16.364 20.186 16.384 19.051V19.049Z" fill="#CCBA8D"/>
<path d="M46.28 6.16506H23.532C23.889 4.73506 24.211 3.35906 24.568 1.98306C24.646 0.853064 25.582 -0.0339355 26.725 -0.0339355C26.859 -0.0339355 26.991 -0.0219355 27.118 0.00206446L27.105 6.4455e-05H42.938C43.008 -0.00793555 43.089 -0.0129355 43.17 -0.0129355C44.219 -0.0129355 45.085 0.766065 45.224 1.77606L45.225 1.78706C45.565 3.07406 45.886 4.36006 46.208 5.64706C46.244 5.80806 46.244 5.96906 46.279 6.16506H46.28Z" fill="#CCBA8D"/>
<path d="M34.861 43.799C26.902 43.778 20.459 37.322 20.459 29.36C20.459 21.386 26.924 14.921 34.898 14.921C42.872 14.921 49.337 21.386 49.337 29.36C49.337 29.41 49.337 29.46 49.336 29.511V29.503C49.215 37.412 42.785 43.78 34.863 43.799H34.861ZM34.861 39.671C40.556 39.671 45.172 35.055 45.172 29.36C45.172 23.665 40.556 19.049 34.861 19.049C29.179 19.049 24.57 23.645 24.55 29.322V29.324C24.55 29.345 24.55 29.371 24.55 29.396C24.55 35.071 29.15 39.671 34.825 39.671C34.863 39.671 34.901 39.671 34.938 39.67H34.932L34.861 39.671Z" fill="#CCBA8D"/>
<path d="M16.384 19.049C16.365 20.174 15.468 21.083 14.35 21.122H14.346C13.211 21.122 12.291 20.202 12.291 19.067C12.291 17.932 13.211 17.012 14.346 17.012C15.455 17.05 16.345 17.94 16.383 19.046V19.05L16.384 19.049Z" fill="#BDAE82"/>
<path d="M35.129 21.1401C39.507 21.2841 43.019 24.8011 43.152 29.1691V29.1821C43.154 29.2201 43.156 29.2651 43.156 29.3111C43.156 30.4431 42.272 31.3681 41.156 31.4341H41.15C41.145 31.4341 41.138 31.4341 41.132 31.4341C39.987 31.4341 39.059 30.5061 39.059 29.3611C39.02 27.1091 37.215 25.2921 34.972 25.2331H34.966C34.949 25.2331 34.93 25.2341 34.91 25.2341C33.785 25.2341 32.873 24.3221 32.873 23.1971C32.873 23.1651 32.874 23.1341 32.875 23.1021V23.1061C32.929 22.0051 33.836 21.1321 34.946 21.1321C35.01 21.1321 35.073 21.1351 35.135 21.1401L35.127 21.1391L35.129 21.1401Z" fill="#CCBA8D"/>
</g>
<defs>
<filter id="filter0_d_6_114" x="0" y="0" width="70" height="58" filterUnits="userSpaceOnUse" color-interpolation-filters="sRGB">
<feFlood flood-opacity="0" result="BackgroundImageFix"/>
<feColorMatrix in="SourceAlpha" type="matrix" values="0 0 0 0 0 0 0 0 0 0 0 0 0 0 0 0 0 0 127 0" result="hardAlpha"/>
<feOffset dy="4"/>
<feGaussianBlur stdDeviation="2"/>
<feComposite in2="hardAlpha" operator="out"/>
<feColorMatrix type="matrix" values="0 0 0 0 0 0 0 0 0 0 0 0 0 0 0 0 0 0 0.25 0"/>
<feBlend mode="normal" in2="BackgroundImageFix" result="effect1_dropShadow_6_114"/>
<feBlend mode="normal" in="SourceGraphic" in2="effect1_dropShadow_6_114" result="shape"/>
</filter>
<clipPath id="clip0_6_114">
<rect width="62" height="50" fill="white" transform="translate(4)"/>
</clipPath>
</defs>
</svg>
